<svg height="512pt" viewBox="0 -33 512.00229 512" width="512pt" xmlns="http://www.w3.org/2000/svg"><path d="m512 146.511719c0 108.253906-87.753906 169.613281-196.007812 169.613281-108.253907 0-196.007813-61.359375-196.007813-169.613281 0-108.25 87.757813-146.511719 196.007813-146.511719 108.253906 0 196.007812 38.261719 196.007812 146.511719zm0 0" fill="#ff592a"/><path d="m430.882812 20.027344c10.441407 19.109375 16.246094 42.285156 16.246094 70.09375 0 108.253906-87.757812 169.609375-196.011718 169.609375-38.917969 0-75.1875-7.929688-105.679688-23.117188 33.691406 51.515625 97.445312 79.511719 170.554688 79.511719 108.253906 0 196.011718-61.359375 196.011718-169.613281-.003906-65.332031-31.976562-105.164063-81.121094-126.484375zm0 0" fill="#f63511"/><path d="m320.128906 34.789062 5.878906 11.90625c.671876 1.363282 1.96875 2.304688 3.472657 2.523438l13.140625 1.910156c3.785156.550782 5.296875 5.199219 2.558594 7.871094l-9.507813 9.265625c-1.089844 1.0625-1.585937 2.589844-1.328125 4.085937l2.246094 13.085938c.644531 3.769531-3.3125 6.644531-6.695313 4.867188l-11.753906-6.179688c-1.34375-.707031-2.953125-.707031-4.296875 0l-11.753906 6.179688c-3.382813 1.777343-7.339844-1.097657-6.695313-4.867188l2.246094-13.085938c.257813-1.496093-.238281-3.023437-1.328125-4.085937l-9.507812-9.265625c-2.738282-2.671875-1.226563-7.320312 2.558593-7.871094l13.140625-1.910156c1.503906-.21875 2.800782-1.160156 3.472656-2.523438l5.878907-11.90625c1.691406-3.433593 6.582031-3.433593 8.273437 0zm0 0" fill="#276b77"/><path d="m345.179688 59c2.738281-2.671875 1.226562-7.320312-2.558594-7.871094l-13.140625-1.910156c-1.503907-.21875-2.800781-1.160156-3.472657-2.523438l-5.878906-11.90625c-1.691406-3.433593-6.582031-3.433593-8.273437 0l-4.792969 9.707032 1.085938 2.199218c.671874 1.363282 1.972656 2.304688 3.472656 2.523438l13.140625 1.910156c3.785156.550782 5.296875 5.199219 2.558593 7.871094l-9.507812 9.265625c-1.089844 1.0625-1.585938 2.589844-1.328125 4.085937l2.054687 11.984376 11.351563 5.96875c3.386719 1.777343 7.34375-1.097657 6.695313-4.867188l-2.242188-13.085938c-.257812-1.496093.238281-3.023437 1.324219-4.085937zm0 0" fill="#115863"/><path d="m156.742188 327.425781c-2.359376-47.46875-14.421876-89.605469-32.394532-119.378906h98.945313c-10.980469 16.605469-17.292969 37.589844-16.714844 60.269531.148437 5.878906.777344 11.609375 1.796875 17.171875 15.257812-27.226562 39.261719-49.792969 68.671875-64.714843v19.910156c-36.863281 39.253906-61.386719 90.191406-67.429687 146.679687-.277344 2.605469-2.496094 4.566407-5.113282 4.566407h-57.421875c-2.621093 0-4.835937-1.964844-5.113281-4.570313-5.832031-54.542969-28.875-103.925781-63.632812-142.597656v-16.523438c38.890624 22.417969 67.5625 57.738281 78.40625 99.1875zm0 0" fill="#276b77"/><path d="m23.527344 159c19.042968-19.042969 44.011718-26.882812 64.003906-22.144531 1.777344.421875 3.621094-.335938 4.53125-1.917969 15.285156-26.492188 47.875-44.792969 85.628906-44.792969 37.75 0 70.339844 18.300781 85.625 44.792969.910156 1.582031 2.757813 2.339844 4.53125 1.917969 19.992188-4.742188 44.960938 3.101562 64.003906 22.144531 26.3125 26.3125 31.308594 63.976562 11.160157 84.128906-20.152344 20.152344-57.820313 15.15625-84.132813-11.15625-2.523437-2.527344-4.832031-5.160156-6.949218-7.875-1.453126-1.859375-4.160157-2.0625-5.949219-.523437-17.257813 14.855469-41.464844 24.105469-68.292969 24.105469-26.824219 0-51.035156-9.25-68.292969-24.105469-1.785156-1.539063-4.496093-1.335938-5.945312.523437-2.117188 2.710938-4.425781 5.347656-6.949219 7.875-26.316406 26.3125-63.980469 31.308594-84.132812 11.15625-20.148438-20.152344-15.152344-57.816406 11.160156-84.128906zm0 0" fill="#00d642"/><path d="m331.851562 159c-8.222656-8.226562-17.550781-14.355469-27.109374-18.289062 19.722656 23.089843 22.566406 53.636718 5.730468 70.476562-17.972656 17.972656-51.574218 13.515625-75.042968-9.953125-1.449219-1.445313-2.8125-2.933594-4.105469-4.453125-2.488281-2.921875-6.863281-3.382812-9.871094-.996094-15.195313 12.050782-35.773437 19.460938-58.445313 19.460938-22.675781 0-43.253906-7.410156-58.449218-19.460938-3.003906-2.386718-7.382813-1.925781-9.871094.996094-1.292969 1.519531-2.65625 3.007812-4.101562 4.453125-23.472657 23.46875-57.070313 27.925781-75.046876 9.953125-6.367187-6.371094-9.90625-14.703125-10.792968-23.847656-8.101563 20.660156-5.960938 42.203125 7.625 55.789062 20.148437 20.148438 57.816406 15.152344 84.128906-11.160156 2.523438-2.523438 4.832031-5.160156 6.949219-7.871094 1.453125-1.859375 4.160156-2.0625 5.949219-.523437 17.257812 14.855469 41.464843 24.105469 68.292968 24.105469 26.824219 0 51.035156-9.25 68.292969-24.105469 1.785156-1.539063 4.496094-1.335938 5.945313.523437 2.117187 2.710938 4.425781 5.347656 6.953124 7.871094 26.3125 26.3125 63.976563 31.308594 84.128907 11.160156 20.148437-20.148437 15.152343-57.816406-11.160157-84.128906zm0 0" fill="#00b142"/><path d="m258.878906 231.972656c-.105468-.105468-.199218-.214844-.304687-.320312-21.003907 14.15625-38.277344 32.5625-50.199219 53.835937-1.023438-5.5625-1.648438-11.292969-1.800781-17.171875-.058594-2.394531-.027344-4.765625.0625-7.121094-28.050781 36.980469-46.214844 81.855469-50.558594 130.734376h48.425781c2.617188 0 4.835938-1.964844 5.113282-4.570313 5.871093-54.898437 29.203124-104.542969 64.347656-143.328125-5.28125-3.324219-10.367188-7.34375-15.085938-12.058594zm0 0" fill="#115863"/><path d="m387.324219 369.132812c0 42.460938-34.425781 76.882813-76.886719 76.882813-27.261719 0-189.0625-31.691406-291.792969-54.378906-24.105469-5.324219-24.105469-39.6875 0-45.007813 102.730469-22.691406 264.53125-54.382812 291.792969-54.382812 42.460938 0 76.886719 34.421875 76.886719 76.886718zm0 0" fill="#fa0"/><path d="m340.316406 298.269531c3.878906 9.1875 6.027344 19.285157 6.027344 29.878907 0 42.464843-34.425781 76.886718-76.886719 76.886718-24.992187 0-165.191406-26.632812-265.277343-48.546875-7.789063 12.257813-2.972657 31.296875 14.464843 35.148438 102.730469 22.6875 264.53125 54.378906 291.792969 54.378906 42.464844 0 76.886719-34.421875 76.886719-76.882813 0-31.867187-19.386719-59.203124-47.007813-70.863281zm0 0" fill="#ff8500"/><g fill="#ff6d00"><path d="m262.132812 394.699219c-1.308593 0-2.636718-.335938-3.855468-1.035157l-15.234375-8.796874c-2.390625-1.382813-3.863281-3.929688-3.863281-6.691407 0-2.757812 1.472656-5.308593 3.863281-6.691406l15.234375-8.796875c3.695312-2.132812 8.421875-.867188 10.554687 2.828125 2.132813 3.695313.867188 8.417969-2.828125 10.550781l-3.648437 2.109375 3.648437 2.105469c3.695313 2.132812 4.960938 6.855469 2.828125 10.550781-1.433593 2.480469-4.027343 3.867188-6.699219 3.867188zm0 0"/><path d="m221.003906 354.96875c-1.3125 0-2.640625-.332031-3.855468-1.035156l-15.238282-8.796875c-2.390625-1.378907-3.859375-3.929688-3.859375-6.6875 0-2.761719 1.46875-5.3125 3.859375-6.691407l15.238282-8.796874c3.695312-2.132813 8.417968-.867188 10.550781 2.828124 2.132812 3.695313.867187 8.417969-2.828125 10.550782l-3.648438 2.105468 3.648438 2.109376c3.695312 2.132812 4.960937 6.855468 2.828125 10.550781-1.429688 2.480469-4.027344 3.863281-6.695313 3.863281zm0 0"/><path d="m299.152344 354.96875c-1.3125 0-2.636719-.332031-3.855469-1.035156l-15.234375-8.796875c-2.390625-1.378907-3.863281-3.929688-3.863281-6.6875 0-2.761719 1.472656-5.3125 3.863281-6.691407l15.234375-8.796874c3.695313-2.132813 8.417969-.867188 10.550781 2.828124 2.132813 3.695313.867188 8.417969-2.824218 10.550782l-3.648438 2.105468 3.648438 2.109376c3.691406 2.132812 4.960937 6.855468 2.824218 10.550781-1.429687 2.480469-4.027344 3.863281-6.695312 3.863281zm0 0"/></g><path d="m444.402344 397.707031v-57.136719c12.828125-8.21875 22.953125-16.882812 29.644531-23.214843 3.5-3.3125.839844-9.191407-3.957031-8.753907-13.992188 1.277344-37.328125 4.976563-60.914063 15.636719-18.367187 8.304688-33.464843 19.28125-44.066406 28.296875-10.042969 8.542969-10.0625 24.023438-.019531 32.570313 11.117187 9.464843 26.75 21.082031 44.085937 28.917969 23.582031 10.660156 46.914063 14.359374 60.90625 15.636718 4.800781.4375 7.457031-5.441406 3.957031-8.753906-6.695312-6.328125-16.816406-14.984375-29.636718-23.199219zm0 0" fill="#00d642"/><path d="m468.699219 416.042969c-14.113281-1.390625-36.6875-5.175781-59.523438-15.5-17.335937-7.835938-32.96875-19.453125-44.089843-28.917969-3.109376-2.648438-5.253907-5.960938-6.433594-9.53125-2.628906 7.9375-.484375 17.121094 6.433594 23.011719 11.121093 9.464843 26.753906 21.082031 44.089843 28.917969 23.582031 10.660156 46.914063 14.359374 60.90625 15.636718 4.800781.4375 7.457031-5.441406 3.957031-8.753906-1.589843-1.5-3.375-3.136719-5.339843-4.863281zm0 0" fill="#00b142"/><path d="m452.257812 369.082031c-25.039062-6.566406-48.667968-6.308593-62.675781-5.226562-4.804687.371093-6.441406 6.605469-2.433593 9.289062 11.671874 7.816407 32.132812 19.636719 57.171874 26.203125 25.035157 6.566406 48.664063 6.304688 62.667969 5.222656 4.808594-.371093 6.445313-6.609374 2.4375-9.292968-11.671875-7.8125-32.128906-19.632813-57.167969-26.195313zm0 0" fill="#00d642"/><path d="m509.425781 395.277344c-3.914062-2.617188-8.832031-5.691406-14.5625-8.863282-.191406.035157-.378906.078126-.578125.09375-14.007812 1.078126-37.632812 1.339844-62.667968-5.226562-16.644532-4.363281-31.242188-11.046875-42.605469-17.335938-4.351563.808594-5.703125 6.628907-1.863281 9.199219 11.671874 7.816407 32.132812 19.636719 57.175781 26.203125 25.035156 6.566406 48.660156 6.308594 62.667969 5.226563 4.804687-.375 6.441406-6.613281 2.433593-9.296875zm0 0" fill="#00b142"/><path d="m452.257812 369.34375c-25.109374 6.300781-48.734374 5.792969-62.730468 4.5625-4.800782-.421875-6.367188-6.671875-2.335938-9.3125 11.753906-7.691406 32.339844-19.296875 57.445313-25.601562 25.105469-6.300782 48.726562-5.792969 62.722656-4.566407 4.804687.421875 6.371094 6.679688 2.339844 9.320313-11.757813 7.691406-32.339844 19.296875-57.441407 25.597656zm0 0" fill="#00d642"/><path d="m507.359375 334.429688c-4.332031-.382813-9.585937-.691407-15.515625-.753907-11.90625 7.683594-32.003906 18.800781-56.398438 24.925781-17.335937 4.351563-33.964843 5.453126-47.203124 5.316407-.351563.222656-.71875.457031-1.050782.675781-4.03125 2.640625-2.464844 8.890625 2.335938 9.3125 13.996094 1.230469 37.621094 1.738281 62.730468-4.5625 25.101563-6.300781 45.683594-17.90625 57.441407-25.597656 4.03125-2.640625 2.464843-8.894532-2.339844-9.316406zm0 0" fill="#00b142"/></svg>