<?xml version="1.0" standalone="no"?>
<!DOCTYPE svg PUBLIC "-//W3C//DTD SVG 20010904//EN"
 "http://www.w3.org/TR/2001/REC-SVG-20010904/DTD/svg10.dtd">
<svg version="1.0" xmlns="http://www.w3.org/2000/svg"
 width="155.000000pt" height="52.000000pt" viewBox="0 0 155.000000 52.000000"
 preserveAspectRatio="xMidYMid meet">
<metadata>
Created by potrace 1.15, written by Peter Selinger 2001-2017
</metadata>
<g transform="translate(0.000000,52.000000) scale(0.100000,-0.100000)"
fill="#000000" stroke="none">
<path d="M83 285 c-30 -21 -39 -69 -19 -100 9 -13 36 -33 61 -44 25 -11 48
-27 51 -36 10 -26 -16 -47 -50 -42 -17 3 -40 7 -51 9 -14 2 -21 -3 -23 -19 -3
-18 4 -24 37 -34 77 -23 141 15 141 82 0 35 -20 60 -65 80 -58 26 -71 42 -49
64 13 12 26 15 52 10 38 -7 59 10 40 32 -14 18 -99 16 -125 -2z"/>
<path d="M326 292 c-3 -5 -26 -67 -51 -137 -35 -99 -42 -130 -33 -137 20 -12
32 -5 47 30 14 30 18 32 65 32 47 0 52 -3 66 -32 16 -35 28 -42 48 -30 10 7 1
39 -36 143 -44 121 -52 134 -75 137 -14 2 -28 -1 -31 -6z"/>
<path d="M500 160 c0 -86 4 -141 10 -142 34 -5 35 -2 40 91 l5 95 60 -92 c61
-94 74 -106 100 -96 12 5 15 31 15 145 l0 139 -25 0 c-24 0 -24 -2 -27 -92
l-3 -92 -60 92 c-51 79 -64 92 -87 92 l-28 0 0 -140z"/>
<path d="M821 284 c-44 -31 -66 -134 -42 -197 23 -61 93 -88 170 -67 35 9 42
15 39 33 -3 22 -9 23 -60 11 -62 -14 -108 26 -108 95 0 74 45 112 111 94 35
-9 41 -8 49 8 8 14 6 21 -9 29 -31 16 -123 12 -150 -6z"/>
<path d="M1032 158 c3 -119 5 -143 18 -143 11 0 16 15 18 62 l3 63 64 0 64 0
3 -62 c3 -55 5 -63 23 -63 19 0 20 8 23 143 l3 142 -26 0 c-24 0 -25 -2 -25
-60 l0 -60 -65 0 -65 0 0 60 c0 54 -2 60 -20 60 -20 0 -20 -5 -18 -142z"/>
</g>
</svg>
